<svg version="1.1" viewBox="0.0 0.0 720.0 540.0" fill="none" stroke="none" stroke-linecap="square" stroke-miterlimit="10" xmlns:xlink="http://www.w3.org/1999/xlink" xmlns="http://www.w3.org/2000/svg"><clipPath id="p.0"><path d="m0 0l720.0 0l0 540.0l-720.0 0l0 -540.0z" clip-rule="nonzero"/></clipPath><g clip-path="url(#p.0)"><path fill="#000000" fill-opacity="0.0" d="m0 0l720.0 0l0 540.0l-720.0 0z" fill-rule="evenodd"/><path fill="#ffffff" d="m3.183727 239.02625l0 0c0 -30.867065 24.938091 -55.889755 55.700787 -55.889755l0 0c14.772766 0 28.940483 5.8883667 39.386406 16.36972c10.445923 10.481369 16.314384 24.697144 16.314384 39.520035l0 0c0 30.867065 -24.938095 55.88977 -55.70079 55.88977l0 0c-30.762695 0 -55.700787 -25.022705 -55.700787 -55.88977z" fill-rule="evenodd"/><path stroke="#000000" stroke-width="1.0" stroke-linejoin="round" stroke-linecap="butt" d="m3.183727 239.02625l0 0c0 -30.867065 24.938091 -55.889755 55.700787 -55.889755l0 0c14.772766 0 28.940483 5.8883667 39.386406 16.36972c10.445923 10.481369 16.314384 24.697144 16.314384 39.520035l0 0c0 30.867065 -24.938095 55.88977 -55.70079 55.88977l0 0c-30.762695 0 -55.700787 -25.022705 -55.700787 -55.88977z" fill-rule="evenodd"/><path fill="#000000" d="m29.34186 241.64937l1.65625 -0.140625q0.125 1.0 0.546875 1.640625q0.4375 0.640625 1.3437519 1.046875q0.921875 0.390625 2.0625 0.390625q1.0 0 1.78125 -0.296875q0.78125 -0.296875 1.15625 -0.8125q0.375 -0.53125 0.375 -1.15625q0 -0.625 -0.375 -1.09375q-0.359375 -0.46875 -1.1875 -0.796875q-0.546875 -0.203125 -2.390625 -0.640625q-1.828125 -0.453125 -2.562502 -0.84375q-0.96875 -0.5 -1.4375 -1.234375q-0.46875 -0.75 -0.46875 -1.671875q0 -1.0 0.578125 -1.875q0.578125 -0.890625 1.6718769 -1.34375q1.109375 -0.453125 2.453125 -0.453125q1.484375 0 2.609375 0.484375q1.140625 0.46875 1.75 1.40625q0.609375 0.921875 0.65625 2.09375l-1.6875 0.125q-0.140625 -1.265625 -0.9375 -1.90625q-0.78125 -0.65625 -2.3125 -0.65625q-1.609375 0 -2.34375 0.59375q-0.7343769 0.59375 -0.7343769 1.421875q0 0.71875 0.5312519 1.171875q0.5 0.46875 2.65625 0.96875q2.15625 0.484375 2.953125 0.84375q1.171875 0.53125 1.71875 1.359375q0.5625 0.828125 0.5625 1.90625q0 1.0625 -0.609375 2.015625q-0.609375 0.9375 -1.75 1.46875q-1.140625 0.515625 -2.578125 0.515625q-1.8125 0 -3.046877 -0.53125q-1.21875 -0.53125 -1.921875 -1.59375q-0.6875 -1.0625 -0.71875 -2.40625zm12.224825 -0.546875q0 -2.6875 1.484375 -3.96875q1.25 -1.078125 3.046875 -1.078125q2.0 0 3.265625 1.3125q1.265625 1.296875 1.265625 3.609375q0 1.859375 -0.5625 2.9375q-0.5625 1.0625 -1.640625 1.65625q-1.0625 0.59375 -2.328125 0.59375q-2.03125 0 -3.28125 -1.296875q-1.25 -1.3125 -1.25 -3.765625zm1.6875 0q0 1.859375 0.796875 2.796875q0.8125 0.921875 2.046875 0.921875q1.21875 0 2.03125 -0.921875q0.8125 -0.9375 0.8125 -2.84375q0 -1.796875 -0.8125 -2.71875q-0.8125 -0.921875 -2.03125 -0.921875q-1.234375 0 -2.046875 0.921875q-0.796875 0.90625 -0.796875 2.765625zm15.625717 4.84375l0 -1.421875q-1.125 1.640625 -3.0625 1.640625q-0.859375 0 -1.609375 -0.328125q-0.734375 -0.328125 -1.09375 -0.828125q-0.359375 -0.5 -0.5 -1.21875q-0.109375 -0.46875 -0.109375 -1.53125l0 -5.984375l1.640625 0l0 5.359375q0 1.28125 0.109375 1.734375q0.15625 0.640625 0.65625 1.015625q0.5 0.375 1.234375 0.375q0.734375 0 1.375 -0.375q0.65625 -0.390625 0.921875 -1.03125q0.265625 -0.65625 0.265625 -1.890625l0 -5.1875l1.640625 0l0 9.671875l-1.46875 0zm4.031967 0l0 -9.671875l1.4687462 0l0 1.46875q0.5625 -1.03125 1.03125 -1.359375q0.484375 -0.328125 1.0625 -0.328125q0.828125 0 1.6875 0.53125l-0.5625 1.515625q-0.609375 -0.359375 -1.203125 -0.359375q-0.546875 0 -0.96875 0.328125q-0.421875 0.328125 -0.609375 0.890625q-0.28125 0.875 -0.28125 1.921875l0 5.0625l-1.6249962 0zm12.540798 -3.546875l1.609375 0.21875q-0.265625 1.65625 -1.359375 2.609375q-1.078125 0.9375 -2.671875 0.9375q-1.984375 0 -3.1875 -1.296875q-1.203125 -1.296875 -1.203125 -3.71875q0 -1.578125 0.515625 -2.75q0.515625 -1.171875 1.578125 -1.75q1.0625 -0.59375 2.3125 -0.59375q1.578125 0 2.578125 0.796875q1.0 0.796875 1.28125 2.265625l-1.59375 0.234375q-0.234375 -0.96875 -0.8125 -1.453125q-0.578125 -0.5 -1.390625 -0.5q-1.234375 0 -2.015625 0.890625q-0.78125 0.890625 -0.78125 2.8125q0 1.953125 0.75 2.84375q0.75 0.875 1.953125 0.875q0.96875 0 1.609375 -0.59375q0.65625 -0.59375 0.828125 -1.828125zm9.640625 0.4375l1.6875 0.203125q-0.40625 1.484375 -1.484375 2.3125q-1.078125 0.8125 -2.765625 0.8125q-2.125 0 -3.375 -1.296875q-1.234375 -1.3125 -1.234375 -3.671875q0 -2.453125 1.25 -3.796875q1.265625 -1.34375 3.265625 -1.34375q1.9375 0 3.15625 1.328125q1.234375 1.3125 1.234375 3.703125q0 0.15625 0 0.4375l-7.21875 0q0.09375 1.59375 0.90625 2.453125q0.8125 0.84375 2.015625 0.84375q0.90625 0 1.546875 -0.46875q0.640625 -0.484375 1.015625 -1.515625zm-5.390625 -2.65625l5.40625 0q-0.109375 -1.21875 -0.625 -1.828125q-0.78125 -0.953125 -2.03125 -0.953125q-1.125 0 -1.90625 0.765625q-0.765625 0.75 -0.84375 2.015625z" fill-rule="nonzero"/><path fill="#ffffff" d="m164.66142 34.59055l0 0c0 -14.5420475 12.021332 -26.330708 26.850388 -26.330708l0 0c7.12117 0 13.950668 2.7741203 18.9861 7.7120857c5.035431 4.9379663 7.8643036 11.635285 7.8643036 18.618622l0 0c0 14.542049 -12.021332 26.330711 -26.850403 26.330711l0 0c-14.829056 0 -26.850388 -11.788662 -26.850388 -26.330711z" fill-rule="evenodd"/><path stroke="#000000" stroke-width="1.0" stroke-linejoin="round" stroke-linecap="butt" d="m164.66142 34.59055l0 0c0 -14.5420475 12.021332 -26.330708 26.850388 -26.330708l0 0c7.12117 0 13.950668 2.7741203 18.9861 7.7120857c5.035431 4.9379663 7.8643036 11.635285 7.8643036 18.618622l0 0c0 14.542049 -12.021332 26.330711 -26.850403 26.330711l0 0c-14.829056 0 -26.850388 -11.788662 -26.850388 -26.330711z" fill-rule="evenodd"/><path fill="#000000" d="m182.40071 42.0468l0 -9.5625l1.078125 0l0 0.890625q0.375 -0.53125 0.84375 -0.78125q0.484375 -0.265625 1.15625 -0.265625q0.875 0 1.546875 0.453125q0.6875 0.453125 1.03125 1.28125q0.34375 0.828125 0.34375 1.828125q0 1.046875 -0.375 1.90625q-0.375 0.84375 -1.109375 1.296875q-0.71875 0.453125 -1.53125 0.453125q-0.578125 0 -1.046875 -0.25q-0.46875 -0.25 -0.765625 -0.625l0 3.375l-1.171875 0zm1.0625 -6.078125q0 1.34375 0.53125 1.984375q0.546875 0.625 1.3125 0.625q0.78125 0 1.34375 -0.65625q0.5625 -0.65625 0.5625 -2.046875q0 -1.3125 -0.546875 -1.96875q-0.546875 -0.671875 -1.296875 -0.671875q-0.75 0 -1.328125 0.703125q-0.578125 0.703125 -0.578125 2.03125zm10.443726 3.421875l-1.171875 0l0 -7.46875q-0.421875 0.40625 -1.109375 0.8125q-0.6875 0.40625 -1.234375 0.609375l0 -1.140625q0.984375 -0.453125 1.71875 -1.109375q0.734375 -0.671875 1.03125 -1.28125l0.765625 0l0 9.578125z" fill-rule="nonzero"/><path fill="#ffffff" d="m164.66011 136.8084l0 0c0 -14.542046 12.021332 -26.330704 26.850388 -26.330704l0 0c7.12117 0 13.950668 2.7741165 18.9861 7.712082c5.0354156 4.9379654 7.8642883 11.635284 7.8642883 18.618622l0 0c0 14.542053 -12.021317 26.330719 -26.850388 26.330719l0 0c-14.829056 0 -26.850388 -11.788666 -26.850388 -26.330719z" fill-rule="evenodd"/><path stroke="#000000" stroke-width="1.0" stroke-linejoin="round" stroke-linecap="butt" d="m164.66011 136.8084l0 0c0 -14.542046 12.021332 -26.330704 26.850388 -26.330704l0 0c7.12117 0 13.950668 2.7741165 18.9861 7.712082c5.0354156 4.9379654 7.8642883 11.635284 7.8642883 18.618622l0 0c0 14.542053 -12.021317 26.330719 -26.850388 26.330719l0 0c-14.829056 0 -26.850388 -11.788666 -26.850388 -26.330719z" fill-rule="evenodd"/><path fill="#000000" d="m182.3994 144.26465l0 -9.5625l1.078125 0l0 0.890625q0.375 -0.53125 0.84375 -0.78125q0.484375 -0.265625 1.15625 -0.265625q0.875 0 1.546875 0.453125q0.6875 0.453125 1.03125 1.28125q0.34375 0.828125 0.34375 1.828125q0 1.046875 -0.375 1.90625q-0.375 0.84375 -1.109375 1.296875q-0.71875 0.453125 -1.53125 0.453125q-0.578125 0 -1.046875 -0.25q-0.46875 -0.25 -0.765625 -0.625l0 3.375l-1.171875 0zm1.0625 -6.078125q0 1.34375 0.53125 1.984375q0.546875 0.625 1.3125 0.625q0.78125 0 1.34375 -0.65625q0.5625 -0.65625 0.5625 -2.046875q0 -1.3125 -0.546875 -1.96875q-0.546875 -0.671875 -1.296875 -0.671875q-0.75 0 -1.328125 0.703125q-0.578125 0.703125 -0.578125 2.03125zm12.178101 2.296875l0 1.125l-6.296875 0q-0.015625 -0.421875 0.140625 -0.8125q0.234375 -0.640625 0.765625 -1.265625q0.53125 -0.625 1.53125 -1.453125q1.5625 -1.265625 2.109375 -2.015625q0.546875 -0.75 0.546875 -1.40625q0 -0.703125 -0.5 -1.171875q-0.5 -0.484375 -1.296875 -0.484375q-0.859375 0 -1.375 0.515625q-0.5 0.5 -0.5 1.390625l-1.203125 -0.109375q0.125 -1.359375 0.921875 -2.0625q0.8125 -0.703125 2.171875 -0.703125q1.375 0 2.171875 0.765625q0.8125 0.75 0.8125 1.875q0 0.578125 -0.234375 1.140625q-0.234375 0.546875 -0.78125 1.15625q-0.546875 0.609375 -1.8125 1.671875q-1.046875 0.890625 -1.359375 1.21875q-0.296875 0.3125 -0.484375 0.625l4.671875 0z" fill-rule="nonzero"/><path fill="#ffffff" d="m174.95145 239.02625l0 0c0 -14.542053 12.021332 -26.330704 26.850388 -26.330704l0 0c7.12117 0 13.950668 2.7741241 18.9861 7.712082c5.035431 4.937973 7.8643036 11.635284 7.8643036 18.618622l0 0c0 14.542053 -12.021332 26.330719 -26.850403 26.330719l0 0c-14.829056 0 -26.850388 -11.788666 -26.850388 -26.330719z" fill-rule="evenodd"/><path stroke="#000000" stroke-width="1.0" stroke-linejoin="round" stroke-linecap="butt" d="m174.95145 239.02625l0 0c0 -14.542053 12.021332 -26.330704 26.850388 -26.330704l0 0c7.12117 0 13.950668 2.7741241 18.9861 7.712082c5.035431 4.937973 7.8643036 11.635284 7.8643036 18.618622l0 0c0 14.542053 -12.021332 26.330719 -26.850403 26.330719l0 0c-14.829056 0 -26.850388 -11.788666 -26.850388 -26.330719z" fill-rule="evenodd"/><path fill="#000000" d="m192.69073 246.4825l0 -9.5625l1.078125 0l0 0.890625q0.375 -0.53125 0.84375 -0.78125q0.484375 -0.265625 1.15625 -0.265625q0.875 0 1.546875 0.453125q0.6875 0.453125 1.03125 1.28125q0.34375 0.828125 0.34375 1.828125q0 1.046875 -0.375 1.90625q-0.375 0.84375 -1.109375 1.296875q-0.71875 0.453125 -1.53125 0.453125q-0.578125 0 -1.046875 -0.25q-0.46875 -0.25 -0.765625 -0.625l0 3.375l-1.171875 0zm1.0625 -6.078125q0 1.34375 0.53125 1.984375q0.546875 0.625 1.3125 0.625q0.78125 0 1.34375 -0.65625q0.5625 -0.65625 0.5625 -2.046875q0 -1.3125 -0.546875 -1.96875q-0.546875 -0.671875 -1.296875 -0.671875q-0.75 0 -1.328125 0.703125q-0.578125 0.703125 -0.578125 2.03125zm6.0374756 0.90625l1.171875 -0.15625q0.203125 1.0 0.6875 1.4375q0.484375 0.4375 1.171875 0.4375q0.828125 0 1.390625 -0.578125q0.578125 -0.578125 0.578125 -1.421875q0 -0.796875 -0.53125 -1.3125q-0.515625 -0.53125 -1.328125 -0.53125q-0.34375 0 -0.828125 0.125l0.125 -1.03125q0.125 0.015625 0.1875 0.015625q0.75 0 1.34375 -0.390625q0.609375 -0.390625 0.609375 -1.203125q0 -0.640625 -0.4375 -1.0625q-0.4375 -0.421875 -1.125 -0.421875q-0.6875 0 -1.140625 0.4375q-0.453125 0.421875 -0.59375 1.28125l-1.171875 -0.21875q0.21875 -1.171875 0.984375 -1.8125q0.765625 -0.65625 1.890625 -0.65625q0.78125 0 1.4375 0.34375q0.65625 0.328125 1.0 0.90625q0.359375 0.578125 0.359375 1.234375q0 0.609375 -0.34375 1.125q-0.328125 0.5 -0.96875 0.796875q0.84375 0.203125 1.3125 0.828125q0.46875 0.609375 0.46875 1.53125q0 1.25 -0.921875 2.125q-0.90625 0.859375 -2.296875 0.859375q-1.25 0 -2.09375 -0.75q-0.828125 -0.75 -0.9375 -1.9375z" fill-rule="nonzero"/><path fill="#ffffff" d="m174.95276 368.48557l0 0c0 -14.542053 12.021332 -26.330719 26.850388 -26.330719l0 0c7.12117 0 13.950668 2.7741394 18.9861 7.712097c5.035431 4.937958 7.8643036 11.635284 7.8643036 18.618622l0 0c0 14.542053 -12.021332 26.330719 -26.850403 26.330719l0 0c-14.829056 0 -26.850388 -11.788666 -26.850388 -26.330719z" fill-rule="evenodd"/><path stroke="#000000" stroke-width="1.0" stroke-linejoin="round" stroke-linecap="butt" d="m174.95276 368.48557l0 0c0 -14.542053 12.021332 -26.330719 26.850388 -26.330719l0 0c7.12117 0 13.950668 2.7741394 18.9861 7.712097c5.035431 4.937958 7.8643036 11.635284 7.8643036 18.618622l0 0c0 14.542053 -12.021332 26.330719 -26.850403 26.330719l0 0c-14.829056 0 -26.850388 -11.788666 -26.850388 -26.330719z" fill-rule="evenodd"/><path fill="#000000" d="m192.69205 375.9418l0 -9.5625l1.078125 0l0 0.890625q0.375 -0.53125 0.84375 -0.78125q0.484375 -0.265625 1.15625 -0.265625q0.875 0 1.546875 0.453125q0.6875 0.453125 1.03125 1.28125q0.34375 0.828125 0.34375 1.828125q0 1.046875 -0.375 1.90625q-0.375 0.84375 -1.109375 1.296875q-0.71875 0.453125 -1.53125 0.453125q-0.578125 0 -1.046875 -0.25q-0.46875 -0.25 -0.765625 -0.625l0 3.375l-1.171875 0zm1.0625 -6.078125q0 1.34375 0.53125 1.984375q0.546875 0.625 1.3125 0.625q0.78125 0 1.34375 -0.65625q0.5625 -0.65625 0.5625 -2.046875q0 -1.3125 -0.546875 -1.96875q-0.546875 -0.671875 -1.296875 -0.671875q-0.75 0 -1.328125 0.703125q-0.578125 0.703125 -0.578125 2.03125zm9.787476 3.421875l0 -2.28125l-4.140625 0l0 -1.078125l4.34375 -6.1875l0.96875 0l0 6.1875l1.28125 0l0 1.078125l-1.28125 0l0 2.28125l-1.171875 0zm0 -3.359375l0 -4.296875l-2.984375 4.296875l2.984375 0z" fill-rule="nonzero"/><path fill="#ffffff" d="m176.08661 475.8819l0 0c0 -14.542053 12.021332 -26.330719 26.850403 -26.330719l0 0c7.12117 0 13.950668 2.774109 18.9861 7.712097c5.0354156 4.937958 7.8642883 11.635284 7.8642883 18.618622l0 0c0 14.542053 -12.021332 26.330688 -26.850388 26.330688l0 0c-14.829071 0 -26.850403 -11.788635 -26.850403 -26.330688z" fill-rule="evenodd"/><path stroke="#000000" stroke-width="1.0" stroke-linejoin="round" stroke-linecap="butt" d="m176.08661 475.8819l0 0c0 -14.542053 12.021332 -26.330719 26.850403 -26.330719l0 0c7.12117 0 13.950668 2.774109 18.9861 7.712097c5.0354156 4.937958 7.8642883 11.635284 7.8642883 18.618622l0 0c0 14.542053 -12.021332 26.330688 -26.850388 26.330688l0 0c-14.829071 0 -26.850403 -11.788635 -26.850403 -26.330688z" fill-rule="evenodd"/><path fill="#000000" d="m193.82591 483.33813l0 -9.5625l1.078125 0l0 0.890625q0.375 -0.53125 0.84375 -0.78125q0.484375 -0.265625 1.15625 -0.265625q0.875 0 1.546875 0.453125q0.6875 0.453125 1.03125 1.28125q0.34375 0.828125 0.34375 1.828125q0 1.046875 -0.375 1.90625q-0.375 0.84375 -1.109375 1.296875q-0.71875 0.453125 -1.53125 0.453125q-0.578125 0 -1.046875 -0.25q-0.46875 -0.25 -0.765625 -0.625l0 3.375l-1.171875 0zm1.0625 -6.078125q0 1.34375 0.53125 1.984375q0.546875 0.625 1.3125 0.625q0.78125 0 1.34375 -0.65625q0.5625 -0.65625 0.5625 -2.046875q0 -1.3125 -0.546875 -1.96875q-0.546875 -0.671875 -1.296875 -0.671875q-0.75 0 -1.328125 0.703125q-0.578125 0.703125 -0.578125 2.03125zm6.0218506 0.921875l1.234375 -0.109375q0.140625 0.90625 0.640625 1.359375q0.5 0.453125 1.203125 0.453125q0.84375 0 1.421875 -0.640625q0.59375 -0.640625 0.59375 -1.6875q0 -1.0 -0.5625 -1.578125q-0.5625 -0.59375 -1.484375 -0.59375q-0.5625 0 -1.015625 0.265625q-0.453125 0.25 -0.71875 0.671875l-1.09375 -0.15625l0.921875 -4.890625l4.75 0l0 1.109375l-3.8125 0l-0.515625 2.5625q0.859375 -0.59375 1.796875 -0.59375q1.25 0 2.109375 0.875q0.859375 0.859375 0.859375 2.21875q0 1.296875 -0.75 2.234375q-0.921875 1.15625 -2.5 1.15625q-1.3125 0 -2.140625 -0.71875q-0.8125 -0.734375 -0.9375 -1.9375z" fill-rule="nonzero"/><path fill="#ffffff" d="m365.16928 52.548557l0 0c0 -22.813274 18.0849 -41.307087 40.393707 -41.307087l0 0c10.713074 0 20.987366 4.351985 28.562653 12.098565c7.575287 7.746582 11.831055 18.2532 11.831055 29.208523l0 0c0 22.813274 -18.08487 41.307087 -40.393707 41.307087l0 0c-22.308807 0 -40.393707 -18.493813 -40.393707 -41.307087z" fill-rule="evenodd"/><path stroke="#000000" stroke-width="1.0" stroke-linejoin="round" stroke-linecap="butt" d="m365.16928 52.548557l0 0c0 -22.813274 18.0849 -41.307087 40.393707 -41.307087l0 0c10.713074 0 20.987366 4.351985 28.562653 12.098565c7.575287 7.746582 11.831055 18.2532 11.831055 29.208523l0 0c0 22.813274 -18.08487 41.307087 -40.393707 41.307087l0 0c-22.308807 0 -40.393707 -18.493813 -40.393707 -41.307087z" fill-rule="evenodd"/><path fill="#000000" d="m388.9691 57.628555l-2.796875 -10.484375l1.4375 0l1.59375 6.875q0.25 1.078125 0.4375 2.140625q0.40625 -1.6875 0.46875 -1.9375l2.0 -7.078125l1.671875 0l1.5 5.296875q0.578125 1.984375 0.828125 3.71875q0.203125 -1.0 0.515625 -2.28125l1.640625 -6.734375l1.40625 0l-2.875 10.484375l-1.34375 0l-2.203125 -8.0q-0.28125 -1.0 -0.34375 -1.21875q-0.15625 0.71875 -0.296875 1.21875l-2.234375 8.0l-1.40625 0zm16.317627 0l-1.28125 0l0 -8.203125q-0.46875 0.4375 -1.21875 0.890625q-0.75 0.4375 -1.359375 0.65625l0 -1.25q1.078125 -0.5 1.890625 -1.21875q0.8125 -0.734375 1.140625 -1.40625l0.828125 0l0 10.53125zm7.062561 0l-1.28125 0l0 -8.203125q-0.46875 0.4375 -1.21875 0.890625q-0.75 0.4375 -1.359375 0.65625l0 -1.25q1.078125 -0.5 1.890625 -1.21875q0.8125 -0.734375 1.140625 -1.40625l0.828125 0l0 10.53125z" fill-rule="nonzero"/><path fill="#ffffff" d="m363.31366 149.69554l0 0c0 -21.030304 17.323395 -38.078743 38.6929 -38.078743l0 0c10.261993 0 20.103699 4.011856 27.360016 11.1530075c7.2563477 7.141144 11.332886 16.82663 11.332886 26.925735l0 0c0 21.030304 -17.323395 38.078735 -38.6929 38.078735l0 0c-21.369507 0 -38.6929 -17.048431 -38.6929 -38.078735z" fill-rule="evenodd"/><path stroke="#000000" stroke-width="1.0" stroke-linejoin="round" stroke-linecap="butt" d="m363.31366 149.69554l0 0c0 -21.030304 17.323395 -38.078743 38.6929 -38.078743l0 0c10.261993 0 20.103699 4.011856 27.360016 11.1530075c7.2563477 7.141144 11.332886 16.82663 11.332886 26.925735l0 0c0 21.030304 -17.323395 38.078735 -38.6929 38.078735l0 0c-21.369507 0 -38.6929 -17.048431 -38.6929 -38.078735z" fill-rule="evenodd"/><path fill="#000000" d="m386.02155 154.77554l-2.328125 -7.59375l1.328125 0l1.203125 4.375l0.453125 1.640625q0.03125 -0.125 0.390625 -1.578125l1.21875 -4.4375l1.328125 0l1.125 4.40625l0.390625 1.453125l0.4375 -1.46875l1.296875 -4.390625l1.25 0l-2.375 7.59375l-1.34375 0l-1.203125 -4.546875l-0.296875 -1.296875l-1.53125 5.84375l-1.34375 0zm13.662384 0l-1.28125 0l0 -8.203125q-0.46875 0.4375 -1.21875 0.890625q-0.75 0.4375 -1.359375 0.65625l0 -1.25q1.078125 -0.5 1.890625 -1.21875q0.8125 -0.734375 1.140625 -1.40625l0.828125 0l0 10.53125zm10.072998 -1.234375l0 1.234375l-6.9375 0q-0.015625 -0.46875 0.15625 -0.890625q0.265625 -0.71875 0.84375 -1.40625q0.59375 -0.6875 1.6875 -1.578125q1.71875 -1.40625 2.3125 -2.21875q0.609375 -0.828125 0.609375 -1.5625q0 -0.765625 -0.5625 -1.28125q-0.546875 -0.53125 -1.421875 -0.53125q-0.921875 0 -1.484375 0.5625q-0.5625 0.5625 -0.5625 1.546875l-1.328125 -0.140625q0.140625 -1.484375 1.015625 -2.25q0.890625 -0.78125 2.390625 -0.78125q1.515625 0 2.390625 0.84375q0.875 0.828125 0.875 2.0625q0 0.640625 -0.265625 1.25q-0.25 0.59375 -0.84375 1.265625q-0.59375 0.671875 -1.984375 1.859375q-1.15625 0.96875 -1.484375 1.3125q-0.328125 0.34375 -0.546875 0.703125l5.140625 0z" fill-rule="nonzero"/><path fill="#ffffff" d="m362.71652 238.75984l0 0c0 -22.813278 18.0849 -41.307083 40.393707 -41.307083l0 0c10.713074 0 20.987366 4.3519745 28.562653 12.0985565c7.5753174 7.746582 11.831055 18.253204 11.831055 29.208527l0 0c0 22.813278 -18.08487 41.307083 -40.393707 41.307083l0 0c-22.308807 0 -40.393707 -18.493805 -40.393707 -41.307083z" fill-rule="evenodd"/><path stroke="#000000" stroke-width="1.0" stroke-linejoin="round" stroke-linecap="butt" d="m362.71652 238.75984l0 0c0 -22.813278 18.0849 -41.307083 40.393707 -41.307083l0 0c10.713074 0 20.987366 4.3519745 28.562653 12.0985565c7.5753174 7.746582 11.831055 18.253204 11.831055 29.208527l0 0c0 22.813278 -18.08487 41.307083 -40.393707 41.307083l0 0c-22.308807 0 -40.393707 -18.493805 -40.393707 -41.307083z" fill-rule="evenodd"/><path fill="#000000" d="m385.92258 243.83984l-2.328125 -7.59375l1.328125 0l1.203125 4.375l0.453125 1.640625q0.03125 -0.125 0.390625 -1.578125l1.21875 -4.4375l1.328125 0l1.125 4.40625l0.390625 1.453125l0.4375 -1.46875l1.296875 -4.390625l1.25 0l-2.375 7.59375l-1.34375 0l-1.203125 -4.546875l-0.296875 -1.296875l-1.53125 5.84375l-1.34375 0zm15.584259 -1.234375l0 1.234375l-6.9375 0q-0.015625 -0.46875 0.15625 -0.890625q0.265625 -0.71875 0.84375 -1.40625q0.59375 -0.6875 1.6875 -1.578125q1.71875 -1.40625 2.3125 -2.21875q0.609375 -0.828125 0.609375 -1.5625q0 -0.765625 -0.5625 -1.28125q-0.546875 -0.53125 -1.421875 -0.53125q-0.921875 0 -1.484375 0.5625q-0.5625 0.5625 -0.5625 1.546875l-1.328125 -0.140625q0.140625 -1.484375 1.015625 -2.25q0.890625 -0.78125 2.390625 -0.78125q1.515625 0 2.390625 0.84375q0.875 0.828125 0.875 2.0625q0 0.640625 -0.265625 1.25q-0.25 0.59375 -0.84375 1.265625q-0.59375 0.671875 -1.984375 1.859375q-1.15625 0.96875 -1.484375 1.3125q-0.328125 0.34375 -0.546875 0.703125l5.140625 0zm6.229248 1.234375l-1.28125 0l0 -8.203125q-0.46875 0.4375 -1.21875 0.890625q-0.75 0.4375 -1.359375 0.65625l0 -1.25q1.078125 -0.5 1.890625 -1.21875q0.8125 -0.734375 1.140625 -1.40625l0.828125 0l0 10.53125z" fill-rule="nonzero"/><path fill="#ffffff" d="m365.51968 331.86746l0 0c0 -22.813293 18.08487 -41.3071 40.393707 -41.3071l0 0c10.713074 0 20.987366 4.3519897 28.562653 12.098572c7.575287 7.746582 11.831055 18.253204 11.831055 29.208527l0 0c0 22.813263 -18.0849 41.307068 -40.393707 41.307068l0 0c-22.308838 0 -40.393707 -18.493805 -40.393707 -41.307068z" fill-rule="evenodd"/><path stroke="#000000" stroke-width="1.0" stroke-linejoin="round" stroke-linecap="butt" d="m365.51968 331.86746l0 0c0 -22.813293 18.08487 -41.3071 40.393707 -41.3071l0 0c10.713074 0 20.987366 4.3519897 28.562653 12.098572c7.575287 7.746582 11.831055 18.253204 11.831055 29.208527l0 0c0 22.813263 -18.0849 41.307068 -40.393707 41.307068l0 0c-22.308838 0 -40.393707 -18.493805 -40.393707 -41.307068z" fill-rule="evenodd"/><path fill="#000000" d="m388.72574 336.94745l-2.328125 -7.59375l1.328125 0l1.203125 4.375l0.453125 1.640625q0.03125 -0.125 0.390625 -1.578125l1.21875 -4.4375l1.328125 0l1.125 4.40625l0.390625 1.453125l0.4375 -1.46875l1.296875 -4.390625l1.25 0l-2.375 7.59375l-1.34375 0l-1.203125 -4.546875l-0.296875 -1.296875l-1.53125 5.84375l-1.34375 0zm8.818634 -2.765625l1.296875 -0.171875q0.21875 1.09375 0.75 1.578125q0.53125 0.484375 1.296875 0.484375q0.90625 0 1.53125 -0.625q0.640625 -0.640625 0.640625 -1.5625q0 -0.890625 -0.59375 -1.46875q-0.578125 -0.578125 -1.46875 -0.578125q-0.359375 0 -0.90625 0.140625l0.140625 -1.125q0.125 0.015625 0.203125 0.015625q0.828125 0 1.484375 -0.421875q0.65625 -0.4375 0.65625 -1.34375q0 -0.703125 -0.484375 -1.15625q-0.46875 -0.46875 -1.234375 -0.46875q-0.75 0 -1.25 0.46875q-0.5 0.46875 -0.640625 1.421875l-1.28125 -0.234375q0.234375 -1.296875 1.0625 -2.0q0.84375 -0.71875 2.09375 -0.71875q0.859375 0 1.578125 0.375q0.71875 0.359375 1.09375 1.0q0.390625 0.640625 0.390625 1.34375q0 0.6875 -0.375 1.25q-0.359375 0.546875 -1.0625 0.875q0.921875 0.21875 1.4375 0.90625q0.515625 0.671875 0.515625 1.6875q0 1.375 -1.0 2.328125q-1.0 0.953125 -2.53125 0.953125q-1.390625 0 -2.296875 -0.8125q-0.90625 -0.828125 -1.046875 -2.140625zm12.994873 2.765625l-1.28125 0l0 -8.203125q-0.46875 0.4375 -1.21875 0.890625q-0.75 0.4375 -1.359375 0.65625l0 -1.25q1.078125 -0.5 1.890625 -1.21875q0.8125 -0.734375 1.140625 -1.40625l0.828125 0l0 10.53125z" fill-rule="nonzero"/><path fill="#ffffff" d="m361.61417 432.13385l0 0c0 -22.813263 18.08487 -41.307068 40.393707 -41.307068l0 0c10.713074 0 20.987366 4.351959 28.562653 12.098541c7.575287 7.746582 11.831055 18.253204 11.831055 29.208527l0 0c0 22.813293 -18.08487 41.3071 -40.393707 41.3071l0 0c-22.308838 0 -40.393707 -18.493805 -40.393707 -41.3071z" fill-rule="evenodd"/><path stroke="#000000" stroke-width="1.0" stroke-linejoin="round" stroke-linecap="butt" d="m361.61417 432.13385l0 0c0 -22.813263 18.08487 -41.307068 40.393707 -41.307068l0 0c10.713074 0 20.987366 4.351959 28.562653 12.098541c7.575287 7.746582 11.831055 18.253204 11.831055 29.208527l0 0c0 22.813293 -18.08487 41.3071 -40.393707 41.3071l0 0c-22.308838 0 -40.393707 -18.493805 -40.393707 -41.3071z" fill-rule="evenodd"/><path fill="#000000" d="m384.82022 437.21387l-2.328125 -7.59375l1.328125 0l1.203125 4.375l0.453125 1.640625q0.03125 -0.125 0.390625 -1.578125l1.21875 -4.4375l1.328125 0l1.125 4.40625l0.390625 1.453125l0.4375 -1.46875l1.296875 -4.390625l1.25 0l-2.375 7.59375l-1.34375 0l-1.203125 -4.546875l-0.296875 -1.296875l-1.53125 5.84375l-1.34375 0zm8.818634 -2.765625l1.296875 -0.171875q0.21875 1.09375 0.75 1.578125q0.53125 0.484375 1.296875 0.484375q0.90625 0 1.53125 -0.625q0.640625 -0.640625 0.640625 -1.5625q0 -0.890625 -0.59375 -1.46875q-0.578125 -0.578125 -1.46875 -0.578125q-0.359375 0 -0.90625 0.140625l0.140625 -1.125q0.125 0.015625 0.203125 0.015625q0.828125 0 1.484375 -0.421875q0.65625 -0.4375 0.65625 -1.34375q0 -0.703125 -0.484375 -1.15625q-0.46875 -0.46875 -1.234375 -0.46875q-0.75 0 -1.25 0.46875q-0.5 0.46875 -0.640625 1.421875l-1.28125 -0.234375q0.234375 -1.296875 1.0625 -2.0q0.84375 -0.71875 2.09375 -0.71875q0.859375 0 1.578125 0.375q0.71875 0.359375 1.09375 1.0q0.390625 0.640625 0.390625 1.34375q0 0.6875 -0.375 1.25q-0.359375 0.546875 -1.0625 0.875q0.921875 0.21875 1.4375 0.90625q0.515625 0.671875 0.515625 1.6875q0 1.375 -1.0 2.328125q-1.0 0.953125 -2.53125 0.953125q-1.390625 0 -2.296875 -0.8125q-0.90625 -0.828125 -1.046875 -2.140625zm14.916748 1.53125l0 1.234375l-6.9375 0q-0.015625 -0.46875 0.15625 -0.890625q0.265625 -0.71875 0.84375 -1.40625q0.59375 -0.6875 1.6875 -1.578125q1.71875 -1.40625 2.3125 -2.21875q0.609375 -0.828125 0.609375 -1.5625q0 -0.765625 -0.5625 -1.28125q-0.546875 -0.53125 -1.421875 -0.53125q-0.921875 0 -1.484375 0.5625q-0.5625 0.5625 -0.5625 1.546875l-1.328125 -0.140625q0.140625 -1.484375 1.015625 -2.25q0.890625 -0.78125 2.390625 -0.78125q1.515625 0 2.390625 0.84375q0.875 0.828125 0.875 2.0625q0 0.640625 -0.265625 1.25q-0.25 0.59375 -0.84375 1.265625q-0.59375 0.671875 -1.984375 1.859375q-1.15625 0.96875 -1.484375 1.3125q-0.328125 0.34375 -0.546875 0.703125l5.140625 0z" fill-rule="nonzero"/><path fill="#ffffff" d="m502.27036 105.314964l0 0c0 -14.542053 12.021332 -26.330711 26.850372 -26.330711l0 0c7.121155 0 13.950684 2.7741165 18.986084 7.712082c5.0354614 4.9379654 7.864319 11.635284 7.864319 18.61863l0 0c0 14.542046 -12.021362 26.330711 -26.850403 26.330711l0 0c-14.829041 0 -26.850372 -11.788666 -26.850372 -26.330711z" fill-rule="evenodd"/><path stroke="#000000" stroke-width="1.0" stroke-linejoin="round" stroke-linecap="butt" d="m502.27036 105.314964l0 0c0 -14.542053 12.021332 -26.330711 26.850372 -26.330711l0 0c7.121155 0 13.950684 2.7741165 18.986084 7.712082c5.0354614 4.9379654 7.864319 11.635284 7.864319 18.61863l0 0c0 14.542046 -12.021362 26.330711 -26.850403 26.330711l0 0c-14.829041 0 -26.850372 -11.788666 -26.850372 -26.330711z" fill-rule="evenodd"/><path fill="#000000" d="m520.3534 112.234955l0 -9.671875l1.46875 0l0 1.46875q0.5625 -1.03125 1.03125 -1.359375q0.484375 -0.328125 1.0625 -0.328125q0.828125 0 1.6875 0.53125l-0.5625 1.515625q-0.609375 -0.359375 -1.203125 -0.359375q-0.546875 0 -0.96875 0.328125q-0.421875 0.328125 -0.609375 0.890625q-0.28125 0.875 -0.28125 1.921875l0 5.0625l-1.625 0zm11.9470215 0l-1.640625 0l0 -10.453125q-0.59375 0.5625 -1.5625 1.140625q-0.953125 0.5625 -1.71875 0.84375l0 -1.59375q1.375 -0.640625 2.40625 -1.5625q1.03125 -0.921875 1.453125 -1.78125l1.0625 0l0 13.40625z" fill-rule="nonzero"/><path fill="#ffffff" d="m502.27036 239.02625l0 0c0 -14.542053 12.021332 -26.330704 26.850372 -26.330704l0 0c7.121155 0 13.950684 2.7741241 18.986084 7.712082c5.0354614 4.937973 7.864319 11.635284 7.864319 18.618622l0 0c0 14.542053 -12.021362 26.330719 -26.850403 26.330719l0 0c-14.829041 0 -26.850372 -11.788666 -26.850372 -26.330719z" fill-rule="evenodd"/><path stroke="#000000" stroke-width="1.0" stroke-linejoin="round" stroke-linecap="butt" d="m502.27036 239.02625l0 0c0 -14.542053 12.021332 -26.330704 26.850372 -26.330704l0 0c7.121155 0 13.950684 2.7741241 18.986084 7.712082c5.0354614 4.937973 7.864319 11.635284 7.864319 18.618622l0 0c0 14.542053 -12.021362 26.330719 -26.850403 26.330719l0 0c-14.829041 0 -26.850372 -11.788666 -26.850372 -26.330719z" fill-rule="evenodd"/><path fill="#000000" d="m520.3534 245.94624l0 -9.671875l1.46875 0l0 1.46875q0.5625 -1.03125 1.03125 -1.359375q0.484375 -0.328125 1.0625 -0.328125q0.828125 0 1.6875 0.53125l-0.5625 1.515625q-0.609375 -0.359375 -1.203125 -0.359375q-0.546875 0 -0.96875 0.328125q-0.421875 0.328125 -0.609375 0.890625q-0.28125 0.875 -0.28125 1.921875l0 5.0625l-1.625 0zm14.3845215 -1.578125l0 1.578125l-8.828125 0q-0.015625 -0.59375 0.1875 -1.140625q0.34375 -0.90625 1.078125 -1.78125q0.75 -0.875 2.15625 -2.015625q2.171875 -1.78125 2.9375 -2.828125q0.765625 -1.046875 0.765625 -1.96875q0 -0.984375 -0.703125 -1.640625q-0.6875 -0.671875 -1.8125 -0.671875q-1.1875 0 -1.90625 0.71875q-0.703125 0.703125 -0.703125 1.953125l-1.6875 -0.171875q0.171875 -1.890625 1.296875 -2.875q1.140625 -0.984375 3.03125 -0.984375q1.921875 0 3.046875 1.0625q1.125 1.0625 1.125 2.640625q0 0.796875 -0.328125 1.578125q-0.328125 0.78125 -1.09375 1.640625q-0.75 0.84375 -2.53125 2.34375q-1.46875 1.234375 -1.890625 1.6875q-0.421875 0.4375 -0.6875 0.875l6.546875 0z" fill-rule="nonzero"/><path fill="#ffffff" d="m502.27036 365.04724l0 0c0 -14.542053 12.021332 -26.330719 26.850372 -26.330719l0 0c7.121155 0 13.950684 2.7741394 18.986084 7.712097c5.0354614 4.937958 7.864319 11.635284 7.864319 18.618622l0 0c0 14.542053 -12.021362 26.330719 -26.850403 26.330719l0 0c-14.829041 0 -26.850372 -11.788666 -26.850372 -26.330719z" fill-rule="evenodd"/><path stroke="#000000" stroke-width="1.0" stroke-linejoin="round" stroke-linecap="butt" d="m502.27036 365.04724l0 0c0 -14.542053 12.021332 -26.330719 26.850372 -26.330719l0 0c7.121155 0 13.950684 2.7741394 18.986084 7.712097c5.0354614 4.937958 7.864319 11.635284 7.864319 18.618622l0 0c0 14.542053 -12.021362 26.330719 -26.850403 26.330719l0 0c-14.829041 0 -26.850372 -11.788666 -26.850372 -26.330719z" fill-rule="evenodd"/><path fill="#000000" d="m520.3534 371.96725l0 -9.671875l1.46875 0l0 1.46875q0.5625 -1.03125 1.03125 -1.359375q0.484375 -0.328125 1.0625 -0.328125q0.828125 0 1.6875 0.53125l-0.5625 1.515625q-0.609375 -0.359375 -1.203125 -0.359375q-0.546875 0 -0.96875 0.328125q-0.421875 0.328125 -0.609375 0.890625q-0.28125 0.875 -0.28125 1.921875l0 5.0625l-1.625 0zm5.7751465 -3.53125l1.640625 -0.21875q0.28125 1.40625 0.953125 2.015625q0.6875 0.609375 1.65625 0.609375q1.15625 0 1.953125 -0.796875q0.796875 -0.796875 0.796875 -1.984375q0 -1.125 -0.734375 -1.859375q-0.734375 -0.734375 -1.875 -0.734375q-0.46875 0 -1.15625 0.171875l0.1875 -1.4375q0.15625 0.015625 0.265625 0.015625q1.046875 0 1.875 -0.546875q0.84375 -0.546875 0.84375 -1.671875q0 -0.90625 -0.609375 -1.5q-0.609375 -0.59375 -1.578125 -0.59375q-0.953125 0 -1.59375 0.609375q-0.640625 0.59375 -0.8125 1.796875l-1.640625 -0.296875q0.296875 -1.640625 1.359375 -2.546875q1.0625 -0.90625 2.65625 -0.90625q1.09375 0 2.0 0.46875q0.921875 0.46875 1.40625 1.28125q0.5 0.8125 0.5 1.71875q0 0.859375 -0.46875 1.578125q-0.46875 0.703125 -1.375 1.125q1.1875 0.28125 1.84375 1.140625q0.65625 0.859375 0.65625 2.15625q0 1.734375 -1.28125 2.953125q-1.265625 1.21875 -3.21875 1.21875q-1.765625 0 -2.921875 -1.046875q-1.15625 -1.046875 -1.328125 -2.71875z" fill-rule="nonzero"/><path fill="#ffffff" d="m610.67194 240.41208l0 0c0 -29.084106 22.660706 -52.661423 50.614136 -52.661423l0 0c13.423706 0 26.297668 5.548233 35.789673 15.424179c9.491943 9.875931 14.824524 23.270569 14.824524 37.237244l0 0c0 29.084106 -22.660767 52.661407 -50.614197 52.661407l0 0c-27.95343 0 -50.614136 -23.577301 -50.614136 -52.661407z" fill-rule="evenodd"/><path stroke="#000000" stroke-width="1.0" stroke-linejoin="round" stroke-linecap="butt" d="m610.67194 240.41208l0 0c0 -29.084106 22.660706 -52.661423 50.614136 -52.661423l0 0c13.423706 0 26.297668 5.548233 35.789673 15.424179c9.491943 9.875931 14.824524 23.270569 14.824524 37.237244l0 0c0 29.084106 -22.660767 52.661407 -50.614197 52.661407l0 0c-27.95343 0 -50.614136 -23.577301 -50.614136 -52.661407z" fill-rule="evenodd"/><path fill="#000000" d="m635.3402 243.0352l1.65625 -0.140625q0.125 1.0 0.546875 1.640625q0.4375 0.640625 1.34375 1.046875q0.921875 0.390625 2.0625 0.390625q1.0 0 1.78125 -0.296875q0.78125 -0.296875 1.15625 -0.8125q0.375 -0.53125 0.375 -1.15625q0 -0.625 -0.375 -1.09375q-0.359375 -0.46875 -1.1875 -0.796875q-0.546875 -0.203125 -2.390625 -0.640625q-1.828125 -0.453125 -2.5625 -0.84375q-0.96875 -0.5 -1.4375 -1.234375q-0.46875 -0.75 -0.46875 -1.671875q0 -1.0 0.578125 -1.875q0.578125 -0.890625 1.671875 -1.34375q1.109375 -0.453125 2.453125 -0.453125q1.484375 0 2.609375 0.484375q1.140625 0.46875 1.75 1.40625q0.609375 0.921875 0.65625 2.09375l-1.6875 0.125q-0.140625 -1.265625 -0.9375 -1.90625q-0.78125 -0.65625 -2.3125 -0.65625q-1.609375 0 -2.34375 0.59375q-0.734375 0.59375 -0.734375 1.421875q0 0.71875 0.53125 1.171875q0.5 0.46875 2.65625 0.96875q2.15625 0.484375 2.953125 0.84375q1.171875 0.53125 1.71875 1.359375q0.5625 0.828125 0.5625 1.90625q0 1.0625 -0.609375 2.015625q-0.609375 0.9375 -1.75 1.46875q-1.140625 0.515625 -2.578125 0.515625q-1.8125 0 -3.046875 -0.53125q-1.21875 -0.53125 -1.921875 -1.59375q-0.6875 -1.0625 -0.71875 -2.40625zm12.8342285 -7.171875l0 -1.890625l1.640625 0l0 1.890625l-1.640625 0zm0 11.46875l0 -9.671875l1.640625 0l0 9.671875l-1.640625 0zm4.1447754 0l0 -9.671875l1.46875 0l0 1.375q1.0625 -1.59375 3.078125 -1.59375q0.875 0 1.609375 0.3125q0.734375 0.3125 1.09375 0.828125q0.375 0.5 0.515625 1.203125q0.09375 0.453125 0.09375 1.59375l0 5.953125l-1.640625 0l0 -5.890625q0 -1.0 -0.203125 -1.484375q-0.1875 -0.5 -0.671875 -0.796875q-0.484375 -0.296875 -1.140625 -0.296875q-1.046875 0 -1.8125 0.671875q-0.75 0.65625 -0.75 2.515625l0 5.28125l-1.640625 0zm10.375732 0l0 -13.359375l1.640625 0l0 7.625l3.890625 -3.9375l2.109375 0l-3.6875 3.59375l4.0625 6.078125l-2.015625 0l-3.203125 -4.953125l-1.15625 1.125l0 3.828125l-1.640625 0z" fill-rule="nonzero"/><path fill="#000000" fill-opacity="0.0" d="m58.884514 183.13649l105.76379 -148.53543" fill-rule="evenodd"/><path stroke="#000000" stroke-width="1.0" stroke-linejoin="round" stroke-linecap="butt" d="m58.884514 183.13649l102.28361 -143.64786" fill-rule="evenodd"/><path fill="#000000" stroke="#000000" stroke-width="1.0" stroke-linecap="butt" d="m162.51363 40.44668l1.2867279 -4.65477l-3.9777222 2.7386665z" fill-rule="evenodd"/><path fill="#000000" fill-opacity="0.0" d="m98.27092 199.50621l66.39371 -62.70865" fill-rule="evenodd"/><path stroke="#000000" stroke-width="1.0" stroke-linejoin="round" stroke-linecap="butt" d="m98.27091 199.50621l62.03173 -58.58879" fill-rule="evenodd"/><path fill="#000000" stroke="#000000" stroke-width="1.0" stroke-linecap="butt" d="m161.4368 142.11821l2.1650238 -4.3168488l-4.433319 1.9152527z" fill-rule="evenodd"/><path fill="#000000" fill-opacity="0.0" d="m114.585304 239.02625l60.377953 0" fill-rule="evenodd"/><path stroke="#000000" stroke-width="1.0" stroke-linejoin="round" stroke-linecap="butt" d="m114.585304 239.02625l54.377953 0" fill-rule="evenodd"/><path fill="#000000" stroke="#000000" stroke-width="1.0" stroke-linecap="butt" d="m168.96326 240.67798l4.538101 -1.6517334l-4.538101 -1.6517334z" fill-rule="evenodd"/><path fill="#000000" fill-opacity="0.0" d="m98.27092 278.54626l76.69292 89.95276" fill-rule="evenodd"/><path stroke="#000000" stroke-width="1.0" stroke-linejoin="round" stroke-linecap="butt" d="m98.27091 278.5463l72.80016 85.38693" fill-rule="evenodd"/><path fill="#000000" stroke="#000000" stroke-width="1.0" stroke-linecap="butt" d="m169.81416 365.00485l4.201187 2.3817139l-1.6873627 -4.5249634z" fill-rule="evenodd"/><path fill="#000000" fill-opacity="0.0" d="m58.884514 294.91602l117.196846 180.97638" fill-rule="evenodd"/><path stroke="#000000" stroke-width="1.0" stroke-linejoin="round" stroke-linecap="butt" d="m58.884514 294.91602l113.93549 175.94016" fill-rule="evenodd"/><path fill="#000000" stroke="#000000" stroke-width="1.0" stroke-linecap="butt" d="m171.4336 471.754l3.8531342 2.911316l-1.080307 -4.70697z" fill-rule="evenodd"/><path fill="#000000" fill-opacity="0.0" d="m228.65355 368.48557l144.7874 34.4252" fill-rule="evenodd"/><path stroke="#000000" stroke-width="1.0" stroke-linejoin="round" stroke-linecap="butt" d="m228.65355 368.48557l138.95012 33.037323" fill-rule="evenodd"/><path fill="#000000" stroke="#000000" stroke-width="1.0" stroke-linecap="butt" d="m367.2216 403.1298l4.7970886 -0.55718994l-4.0329285 -2.6566772z" fill-rule="evenodd"/><path fill="#000000" fill-opacity="0.0" d="m229.7874 475.8819l131.84251 -43.748047" fill-rule="evenodd"/><path stroke="#000000" stroke-width="1.0" stroke-linejoin="round" stroke-linecap="butt" d="m229.7874 475.8819l126.14784 -41.85843" fill-rule="evenodd"/><path fill="#000000" stroke="#000000" stroke-width="1.0" stroke-linecap="butt" d="m356.45544 435.59116l3.7869568 -2.9968872l-4.827362 -0.13848877z" fill-rule="evenodd"/><path fill="#000000" fill-opacity="0.0" d="m218.36221 34.59055l146.80313 17.952759" fill-rule="evenodd"/><path stroke="#000000" stroke-width="1.0" stroke-linejoin="round" stroke-linecap="butt" d="m218.3622 34.59055l140.84752 17.224438" fill-rule="evenodd"/><path fill="#000000" stroke="#000000" stroke-width="1.0" stroke-linecap="butt" d="m359.00922 53.454502l4.7050476 -1.0886497l-4.3040466 -2.190384z" fill-rule="evenodd"/><path fill="#000000" fill-opacity="0.0" d="m210.4966 118.18977l166.48817 -36.44094" fill-rule="evenodd"/><path stroke="#000000" stroke-width="1.0" stroke-linejoin="round" stroke-linecap="butt" d="m210.4966 118.18977l160.62697 -35.158028" fill-rule="evenodd"/><path fill="#000000" stroke="#000000" stroke-width="1.0" stroke-linecap="butt" d="m371.4767 84.64527l4.0799866 -2.5838623l-4.786316 -0.64320374z" fill-rule="evenodd"/><path fill="#000000" fill-opacity="0.0" d="m210.4966 155.42702l166.86613 147.2441" fill-rule="evenodd"/><path stroke="#000000" stroke-width="1.0" stroke-linejoin="round" stroke-linecap="butt" d="m210.4966 155.42702l162.36723 143.27422" fill-rule="evenodd"/><path fill="#000000" stroke="#000000" stroke-width="1.0" stroke-linecap="butt" d="m371.77097 299.93976l4.4956055 1.7640991l-2.3098755 -4.2411194z" fill-rule="evenodd"/><path fill="#000000" fill-opacity="0.0" d="m228.65224 239.02625l134.07872 -0.25196838" fill-rule="evenodd"/><path stroke="#000000" stroke-width="1.0" stroke-linejoin="round" stroke-linecap="butt" d="m228.65224 239.02625l128.07872 -0.24069214" fill-rule="evenodd"/><path fill="#000000" stroke="#000000" stroke-width="1.0" stroke-linecap="butt" d="m356.7341 240.43729l4.534973 -1.6602631l-4.5411987 -1.6432037z" fill-rule="evenodd"/><path fill="#000000" fill-opacity="0.0" d="m434.67007 416.61075l75.46457 -32.944885" fill-rule="evenodd"/><path stroke="#000000" stroke-width="1.0" stroke-linejoin="round" stroke-linecap="butt" d="m434.67007 416.61072l69.9657 -30.544281" fill-rule="evenodd"/><path fill="#000000" stroke="#000000" stroke-width="1.0" stroke-linecap="butt" d="m505.29666 387.5802l3.498169 -3.3294373l-4.8198853 0.30187988z" fill-rule="evenodd"/><path fill="#000000" fill-opacity="0.0" d="m446.3071 331.86746l55.968506 33.165344" fill-rule="evenodd"/><path stroke="#000000" stroke-width="1.0" stroke-linejoin="round" stroke-linecap="butt" d="m446.3071 331.86746l50.8067 30.106628" fill-rule="evenodd"/><path fill="#000000" stroke="#000000" stroke-width="1.0" stroke-linecap="butt" d="m496.27176 363.39505l4.746155 0.8924866l-3.0620728 -3.734436z" fill-rule="evenodd"/><path fill="#000000" fill-opacity="0.0" d="m548.1068 346.42862l77.385864 -68.787415" fill-rule="evenodd"/><path stroke="#000000" stroke-width="1.0" stroke-linejoin="round" stroke-linecap="butt" d="m548.1068 346.42865l72.90137 -64.80124" fill-rule="evenodd"/><path fill="#000000" stroke="#000000" stroke-width="1.0" stroke-linecap="butt" d="m622.1055 282.86194l2.2944946 -4.249481l-4.489197 1.780426z" fill-rule="evenodd"/><path fill="#000000" fill-opacity="0.0" d="m555.9711 239.02625l54.70868 1.3858337" fill-rule="evenodd"/><path stroke="#000000" stroke-width="1.0" stroke-linejoin="round" stroke-linecap="butt" d="m555.9711 239.02625l48.71057 1.2338867" fill-rule="evenodd"/><path fill="#000000" stroke="#000000" stroke-width="1.0" stroke-linecap="butt" d="m604.6399 241.91135l4.578491 -1.5362854l-4.494873 -1.7661285z" fill-rule="evenodd"/><path fill="#000000" fill-opacity="0.0" d="m555.9711 105.314964l69.51178 97.85827" fill-rule="evenodd"/><path stroke="#000000" stroke-width="1.0" stroke-linejoin="round" stroke-linecap="butt" d="m555.9711 105.314964l66.03717 92.96674" fill-rule="evenodd"/><path fill="#000000" stroke="#000000" stroke-width="1.0" stroke-linecap="butt" d="m620.66174 199.23822l3.9746094 2.7431793l-1.2814331 -4.6562195z" fill-rule="evenodd"/><path fill="#000000" fill-opacity="0.0" d="m443.50394 238.75984l58.771667 0.25196838" fill-rule="evenodd"/><path stroke="#000000" stroke-width="1.0" stroke-linejoin="round" stroke-linecap="butt" d="m443.50394 238.75984l52.771698 0.22625732" fill-rule="evenodd"/><path fill="#000000" stroke="#000000" stroke-width="1.0" stroke-linecap="butt" d="m496.26855 240.6378l4.5451355 -1.6322632l-4.5309753 -1.6711731z" fill-rule="evenodd"/><path fill="#000000" fill-opacity="0.0" d="m440.69946 149.69554l61.57483 -44.377953" fill-rule="evenodd"/><path stroke="#000000" stroke-width="1.0" stroke-linejoin="round" stroke-linecap="butt" d="m440.69946 149.69554l56.707275 -40.869835" fill-rule="evenodd"/><path fill="#000000" stroke="#000000" stroke-width="1.0" stroke-linecap="butt" d="m498.37247 110.16569l2.7158203 -3.9933472l-4.6473083 1.313385z" fill-rule="evenodd"/><path fill="#000000" fill-opacity="0.0" d="m434.67007 52.649094l75.46457 34.04724" fill-rule="evenodd"/><path stroke="#000000" stroke-width="1.0" stroke-linejoin="round" stroke-linecap="butt" d="m434.67007 52.649094l69.99545 31.579742" fill-rule="evenodd"/><path fill="#000000" stroke="#000000" stroke-width="1.0" stroke-linecap="butt" d="m503.98624 85.73443l4.815857 0.3607025l-3.457306 -3.3718872z" fill-rule="evenodd"/><path fill="#000000" fill-opacity="0.0" d="m221.92311 457.26328l141.38582 -307.55908" fill-rule="evenodd"/><path stroke="#000000" stroke-width="1.0" stroke-linejoin="round" stroke-linecap="butt" d="m221.92311 457.26328l138.87971 -302.1075" fill-rule="evenodd"/><path fill="#000000" stroke="#000000" stroke-width="1.0" stroke-linecap="butt" d="m362.3036 155.84567l0.39474487 -4.8131866l-3.3962402 3.4333801z" fill-rule="evenodd"/><path fill="#000000" fill-opacity="0.0" d="m210.49791 53.209175l164.063 156.34647" fill-rule="evenodd"/><path stroke="#000000" stroke-width="1.0" stroke-linejoin="round" stroke-linecap="butt" d="m210.49791 53.209175l159.71944 152.20718" fill-rule="evenodd"/><path fill="#000000" stroke="#000000" stroke-width="1.0" stroke-linecap="butt" d="m369.07785 206.6121l4.4247437 1.9349976l-2.145752 -4.326462z" fill-rule="evenodd"/><path fill="#000000" fill-opacity="0.0" d="m82.5538 62.233597l32.0315 0l0 32.944878l-32.0315 0z" fill-rule="evenodd"/><path fill="#000000" d="m98.50693 89.153595l-1.640625 0l0 -10.453125q-0.59375 0.5625 -1.5625 1.140625q-0.953125 0.5625 -1.71875 0.84375l0 -1.59375q1.375 -0.640625 2.40625 -1.5625q1.03125 -0.921875 1.453125 -1.78125l1.0625 0l0 13.40625z" fill-rule="nonzero"/><path fill="#000000" fill-opacity="0.0" d="m128.75722 166.56168l32.031494 0l0 32.944885l-32.031494 0z" fill-rule="evenodd"/><path fill="#000000" d="m144.71034 193.48167l-1.640625 0l0 -10.453125q-0.59375 0.5625 -1.5625 1.140625q-0.953125 0.5625 -1.71875 0.84375l0 -1.59375q1.375 -0.640625 2.40625 -1.5625q1.03125 -0.921875 1.453125 -1.78125l1.0625 0l0 13.40625z" fill-rule="nonzero"/><path fill="#000000" fill-opacity="0.0" d="m134.80446 242.31364l32.031494 0l0 32.9449l-32.031494 0z" fill-rule="evenodd"/><path fill="#000000" d="m150.75758 269.23364l-1.640625 0l0 -10.453125q-0.59375 0.5625 -1.5625 1.140625q-0.953125 0.5625 -1.71875 0.84375l0 -1.59375q1.375 -0.640625 2.40625 -1.5625q1.03125 -0.921875 1.453125 -1.78125l1.0625 0l0 13.40625z" fill-rule="nonzero"/><path fill="#000000" fill-opacity="0.0" d="m95.750656 315.39633l32.031494 0l0 32.944885l-32.031494 0z" fill-rule="evenodd"/><path fill="#000000" d="m111.70378 342.3163l-1.640625 0l0 -10.453125q-0.59375 0.5625 -1.5625 1.140625q-0.953125 0.5625 -1.71875 0.84375l0 -1.59375q1.375 -0.640625 2.40625 -1.5625q1.03125 -0.921875 1.453125 -1.78125l1.0625 0l0 13.40625z" fill-rule="nonzero"/><path fill="#000000" fill-opacity="0.0" d="m95.750656 402.91077l32.031494 0l0 32.944885l-32.031494 0z" fill-rule="evenodd"/><path fill="#000000" d="m111.70378 429.83075l-1.640625 0l0 -10.453125q-0.59375 0.5625 -1.5625 1.140625q-0.953125 0.5625 -1.71875 0.84375l0 -1.59375q1.375 -0.640625 2.40625 -1.5625q1.03125 -0.921875 1.453125 -1.78125l1.0625 0l0 13.40625z" fill-rule="nonzero"/><path fill="#000000" fill-opacity="0.0" d="m285.0315 9.556431l32.031494 0l0 32.94488l-32.031494 0z" fill-rule="evenodd"/><path fill="#000000" d="m300.98462 36.47643l-1.640625 0l0 -10.453125q-0.59375 0.5625 -1.5625 1.140625q-0.953125 0.5625 -1.71875 0.84375l0 -1.59375q1.375 -0.640625 2.40625 -1.5625q1.03125 -0.921875 1.453125 -1.78125l1.0625 0l0 13.40625z" fill-rule="nonzero"/><path fill="#000000" fill-opacity="0.0" d="m281.59448 62.233597l32.031494 0l0 32.944878l-32.031494 0z" fill-rule="evenodd"/><path fill="#000000" d="m297.5476 89.153595l-1.640625 0l0 -10.453125q-0.59375 0.5625 -1.5625 1.140625q-0.953125 0.5625 -1.71875 0.84375l0 -1.59375q1.375 -0.640625 2.40625 -1.5625q1.03125 -0.921875 1.453125 -1.78125l1.0625 0l0 13.40625z" fill-rule="nonzero"/><path fill="#000000" fill-opacity="0.0" d="m303.25723 114.91076l32.031494 0l0 32.944878l-32.031494 0z" fill-rule="evenodd"/><path fill="#000000" d="m319.21036 141.83076l-1.640625 0l0 -10.453125q-0.59375 0.5625 -1.5625 1.140625q-0.953125 0.5625 -1.71875 0.84375l0 -1.59375q1.375 -0.640625 2.40625 -1.5625q1.03125 -0.921875 1.453125 -1.78125l1.0625 0l0 13.40625z" fill-rule="nonzero"/><path fill="#000000" fill-opacity="0.0" d="m247.97375 162.00787l32.031494 0l0 32.944885l-32.031494 0z" fill-rule="evenodd"/><path fill="#000000" d="m263.92688 188.92787l-1.640625 0l0 -10.453125q-0.59375 0.5625 -1.5625 1.140625q-0.953125 0.5625 -1.71875 0.84375l0 -1.59375q1.375 -0.640625 2.40625 -1.5625q1.03125 -0.921875 1.453125 -1.78125l1.0625 0l0 13.40625z" fill-rule="nonzero"/><path fill="#000000" fill-opacity="0.0" d="m236.76903 242.31496l32.03151 0l0 32.9449l-32.03151 0z" fill-rule="evenodd"/><path fill="#000000" d="m252.72215 269.23495l-1.640625 0l0 -10.453125q-0.59375 0.5625 -1.5625 1.140625q-0.953125 0.5625 -1.71875 0.84375l0 -1.59375q1.375 -0.640625 2.40625 -1.5625q1.03125 -0.921875 1.453125 -1.78125l1.0625 0l0 13.40625z" fill-rule="nonzero"/><path fill="#000000" fill-opacity="0.0" d="m295.937 416.6063l32.031494 0l0 32.944885l-32.031494 0z" fill-rule="evenodd"/><path fill="#000000" d="m311.89014 443.5263l-1.640625 0l0 -10.453125q-0.59375 0.5625 -1.5625 1.140625q-0.953125 0.5625 -1.71875 0.84375l0 -1.59375q1.375 -0.640625 2.40625 -1.5625q1.03125 -0.921875 1.453125 -1.78125l1.0625 0l0 13.40625z" fill-rule="nonzero"/><path fill="#000000" fill-opacity="0.0" d="m288.80054 355.96457l32.031494 0l0 32.944885l-32.031494 0z" fill-rule="evenodd"/><path fill="#000000" d="m304.75366 382.88455l-1.640625 0l0 -10.453125q-0.59375 0.5625 -1.5625 1.140625q-0.953125 0.5625 -1.71875 0.84375l0 -1.59375q1.375 -0.640625 2.40625 -1.5625q1.03125 -0.921875 1.453125 -1.78125l1.0625 0l0 13.40625z" fill-rule="nonzero"/><path fill="#000000" fill-opacity="0.0" d="m288.80054 295.32547l32.031494 0l0 32.944885l-32.031494 0z" fill-rule="evenodd"/><path fill="#000000" d="m304.75366 322.24545l-1.640625 0l0 -10.453125q-0.59375 0.5625 -1.5625 1.140625q-0.953125 0.5625 -1.71875 0.84375l0 -1.59375q1.375 -0.640625 2.40625 -1.5625q1.03125 -0.921875 1.453125 -1.78125l1.0625 0l0 13.40625z" fill-rule="nonzero"/><path fill="#000000" fill-opacity="0.0" d="m456.38583 38.341206l32.031494 0l0 32.94488l-32.031494 0z" fill-rule="evenodd"/><path fill="#000000" d="m472.33896 65.26121l-1.640625 0l0 -10.453129q-0.59375 0.5625 -1.5625 1.140625q-0.953125 0.5625 -1.71875 0.84375l0 -1.59375q1.375 -0.640625 2.40625 -1.5625q1.03125 -0.921875 1.453125 -1.78125l1.0625 0l0 13.406254z" fill-rule="nonzero"/><path fill="#000000" fill-opacity="0.0" d="m452.45407 129.36745l32.031494 0l0 32.944885l-32.031494 0z" fill-rule="evenodd"/><path fill="#000000" d="m468.4072 156.28745l-1.640625 0l0 -10.453125q-0.59375 0.5625 -1.5625 1.140625q-0.953125 0.5625 -1.71875 0.84375l0 -1.59375q1.375 -0.640625 2.40625 -1.5625q1.03125 -0.921875 1.453125 -1.78125l1.0625 0l0 13.40625z" fill-rule="nonzero"/><path fill="#000000" fill-opacity="0.0" d="m446.13385 204.98425l32.031494 0l0 32.944885l-32.031494 0z" fill-rule="evenodd"/><path fill="#000000" d="m462.08698 231.90425l-1.640625 0l0 -10.453125q-0.59375 0.5625 -1.5625 1.140625q-0.953125 0.5625 -1.71875 0.84375l0 -1.59375q1.375 -0.640625 2.40625 -1.5625q1.03125 -0.921875 1.453125 -1.78125l1.0625 0l0 13.40625z" fill-rule="nonzero"/><path fill="#000000" fill-opacity="0.0" d="m448.51706 311.3517l32.031494 0l0 32.944885l-32.031494 0z" fill-rule="evenodd"/><path fill="#000000" d="m464.47018 338.2717l-1.640625 0l0 -10.453125q-0.59375 0.5625 -1.5625 1.140625q-0.953125 0.5625 -1.71875 0.84375l0 -1.59375q1.375 -0.640625 2.40625 -1.5625q1.03125 -0.921875 1.453125 -1.78125l1.0625 0l0 13.40625z" fill-rule="nonzero"/><path fill="#000000" fill-opacity="0.0" d="m446.13385 406.76642l32.031494 0l0 32.944855l-32.031494 0z" fill-rule="evenodd"/><path fill="#000000" d="m462.08698 433.6864l-1.640625 0l0 -10.453125q-0.59375 0.5625 -1.5625 1.140625q-0.953125 0.5625 -1.71875 0.84375l0 -1.59375q1.375 -0.640625 2.40625 -1.5625q1.03125 -0.921875 1.453125 -1.78125l1.0625 0l0 13.40625z" fill-rule="nonzero"/><path fill="#000000" fill-opacity="0.0" d="m582.2546 301.49344l32.031494 0l0 32.944885l-32.031494 0z" fill-rule="evenodd"/><path fill="#000000" d="m592.0358 324.88217l1.640625 -0.21875q0.28125 1.40625 0.953125 2.015625q0.6875 0.609375 1.65625 0.609375q1.15625 0 1.953125 -0.796875q0.796875 -0.796875 0.796875 -1.984375q0 -1.125 -0.734375 -1.859375q-0.734375 -0.734375 -1.875 -0.734375q-0.46875 0 -1.15625 0.171875l0.1875 -1.4375q0.15625 0.015625 0.265625 0.015625q1.046875 0 1.875 -0.546875q0.84375 -0.546875 0.84375 -1.671875q0 -0.90625 -0.609375 -1.5q-0.609375 -0.59375 -1.578125 -0.59375q-0.953125 0 -1.59375 0.609375q-0.640625 0.59375 -0.8125 1.796875l-1.640625 -0.296875q0.296875 -1.640625 1.359375 -2.546875q1.0625 -0.90625 2.65625 -0.90625q1.09375 0 2.0 0.46875q0.921875 0.46875 1.40625 1.28125q0.5 0.8125 0.5 1.71875q0 0.859375 -0.46875 1.578125q-0.46875 0.703125 -1.375 1.125q1.1875 0.28125 1.84375 1.140625q0.65625 0.859375 0.65625 2.15625q0 1.734375 -1.28125 2.953125q-1.265625 1.21875 -3.21875 1.21875q-1.765625 0 -2.921875 -1.046875q-1.15625 -1.046875 -1.328125 -2.71875z" fill-rule="nonzero"/><path fill="#000000" fill-opacity="0.0" d="m561.0945 206.08136l32.031494 0l0 32.944885l-32.031494 0z" fill-rule="evenodd"/><path fill="#000000" d="m570.87573 229.47011l1.640625 -0.21875q0.28125 1.40625 0.953125 2.015625q0.6875 0.609375 1.65625 0.609375q1.15625 0 1.953125 -0.796875q0.796875 -0.796875 0.796875 -1.984375q0 -1.125 -0.734375 -1.859375q-0.734375 -0.734375 -1.875 -0.734375q-0.46875 0 -1.15625 0.171875l0.1875 -1.4375q0.15625 0.015625 0.265625 0.015625q1.046875 0 1.875 -0.546875q0.84375 -0.546875 0.84375 -1.671875q0 -0.90625 -0.609375 -1.5q-0.609375 -0.59375 -1.578125 -0.59375q-0.953125 0 -1.59375 0.609375q-0.640625 0.59375 -0.8125 1.796875l-1.640625 -0.296875q0.296875 -1.640625 1.359375 -2.546875q1.0625 -0.90625 2.65625 -0.90625q1.09375 0 2.0 0.46875q0.921875 0.46875 1.40625 1.28125q0.5 0.8125 0.5 1.71875q0 0.859375 -0.46875 1.578125q-0.46875 0.703125 -1.375 1.125q1.1875 0.28125 1.84375 1.140625q0.65625 0.859375 0.65625 2.15625q0 1.734375 -1.28125 2.953125q-1.265625 1.21875 -3.21875 1.21875q-1.765625 0 -2.921875 -1.046875q-1.15625 -1.046875 -1.328125 -2.71875z" fill-rule="nonzero"/><path fill="#000000" fill-opacity="0.0" d="m585.65356 110.66929l32.031494 0l0 32.944878l-32.031494 0z" fill-rule="evenodd"/><path fill="#000000" d="m595.4348 134.05804l1.640625 -0.21875q0.28125 1.40625 0.953125 2.015625q0.6875 0.609375 1.65625 0.609375q1.15625 0 1.953125 -0.796875q0.796875 -0.796875 0.796875 -1.984375q0 -1.125 -0.734375 -1.859375q-0.734375 -0.734375 -1.875 -0.734375q-0.46875 0 -1.15625 0.171875l0.1875 -1.4375q0.15625 0.015625 0.265625 0.015625q1.046875 0 1.875 -0.546875q0.84375 -0.546875 0.84375 -1.6718826q0 -0.90625 -0.609375 -1.5q-0.609375 -0.59375 -1.578125 -0.59375q-0.953125 0 -1.59375 0.609375q-0.640625 0.59375 -0.8125 1.796875l-1.640625 -0.296875q0.296875 -1.640625 1.359375 -2.546875q1.0625 -0.90625 2.65625 -0.90625q1.09375 0 2.0 0.46875q0.921875 0.46875 1.40625 1.28125q0.5 0.8125 0.5 1.71875q0 0.8593826 -0.46875 1.5781326q-0.46875 0.703125 -1.375 1.125q1.1875 0.28125 1.84375 1.140625q0.65625 0.859375 0.65625 2.15625q0 1.734375 -1.28125 2.953125q-1.265625 1.21875 -3.21875 1.21875q-1.765625 0 -2.921875 -1.046875q-1.15625 -1.046875 -1.328125 -2.71875z" fill-rule="nonzero"/></g></svg>